CP16_T0_11_IK_adjusted.mot
version=1
nRows=42
nColumns=11
inDegrees=no
endheader
                time	         pelvis_tilt	           pelvis_tx	           pelvis_ty	       hip_flexion_l	       hip_flexion_r	        knee_angle_l	        knee_angle_r	       ankle_angle_l	       ankle_angle_r	    lumbar_extension	
          0.00000000	          0.07407362	          0.00000000	          0.87176463	         -0.29376439	          0.51507049	         -0.30855271	         -0.38127318	          0.33912141	         -0.05860579	         -0.31780148	
          0.01000000	          0.06250224	          0.01134562	          0.86917143	         -0.28409601	          0.53327560	         -0.32945521	         -0.41906816	          0.33383442	         -0.05059046	         -0.30315196	
          0.02000000	          0.05042397	          0.02265603	          0.86713431	         -0.27336904	          0.55599097	         -0.34980835	         -0.45484343	          0.32470721	         -0.04619863	         -0.28822439	
          0.03000000	          0.03822136	          0.03390101	          0.86562350	         -0.26143973	          0.57714508	         -0.37199081	         -0.48547329	          0.31275561	         -0.05212858	         -0.27386517	
          0.04000000	          0.02856036	          0.04522963	          0.86489641	         -0.25287532	          0.59007010	         -0.39222503	         -0.51147238	          0.28862545	         -0.06716781	         -0.26268826	
          0.05000000	          0.01968140	          0.05653606	          0.86451432	         -0.24186911	          0.59752977	         -0.41830663	         -0.53225673	          0.26325765	         -0.07119428	         -0.25233397	
          0.06000000	          0.01044297	          0.06778561	          0.86472623	         -0.23049418	          0.59976037	         -0.44236113	         -0.54277928	          0.24197475	         -0.06521386	         -0.24195194	
          0.07000000	          0.00256016	          0.07954057	          0.86522788	         -0.21946815	          0.59731118	         -0.46697938	         -0.54920777	          0.20793482	         -0.05854800	         -0.23246215	
          0.08000000	         -0.00615919	          0.09123648	          0.86582368	         -0.20497365	          0.59476914	         -0.49504686	         -0.55465845	          0.17562759	         -0.05044254	         -0.22159497	
          0.09000000	         -0.01584134	          0.10264557	          0.86649993	         -0.18695841	          0.59339085	         -0.52529941	         -0.56009570	          0.14144056	         -0.03930667	         -0.21031540	
          0.10000000	         -0.02159227	          0.11435680	          0.86787667	         -0.17256969	          0.58714291	         -0.55378454	         -0.56519746	          0.09934509	         -0.02954509	         -0.20267602	
          0.11000000	         -0.02827189	          0.12571482	          0.86931628	         -0.15387774	          0.58288688	         -0.58803074	         -0.57071167	          0.05970154	         -0.01938147	         -0.19412165	
          0.12000000	         -0.03336679	          0.13694776	          0.87104101	         -0.13517707	          0.57697947	         -0.62286657	         -0.57603499	          0.01605932	         -0.00817498	         -0.18681623	
          0.13000000	         -0.03693550	          0.14819462	          0.87301357	         -0.11533704	          0.56900131	         -0.65925025	         -0.58045848	         -0.02989720	          0.00335487	         -0.18064893	
          0.14000000	         -0.03749441	          0.15955573	          0.87525482	         -0.09630803	          0.55641518	         -0.69775359	         -0.58288304	         -0.07723695	          0.01462822	         -0.17737714	
          0.15000000	         -0.03592139	          0.17065286	          0.87751646	         -0.07596437	          0.54176233	         -0.73925282	         -0.58494292	         -0.12726529	          0.02627549	         -0.17630418	
          0.16000000	         -0.03254214	          0.18168384	          0.87999589	         -0.05522338	          0.52368193	         -0.78208506	         -0.58469372	         -0.17180860	          0.03874505	         -0.17661495	
          0.17000000	         -0.02834039	          0.19256079	          0.88264663	         -0.03358976	          0.50293967	         -0.82358523	         -0.58069465	         -0.21133843	          0.04905014	         -0.17720391	
          0.18000000	         -0.02302645	          0.20319812	          0.88545332	         -0.01128505	          0.47946950	         -0.86559133	         -0.57345404	         -0.23935564	          0.06002038	         -0.17892654	
          0.19000000	         -0.01721634	          0.21384117	          0.88845311	          0.01102497	          0.45344724	         -0.90549577	         -0.56251452	         -0.25651715	          0.06737990	         -0.18001419	
          0.20000000	         -0.01353590	          0.22427541	          0.89122500	          0.03929215	          0.42912119	         -0.94798101	         -0.54976602	         -0.26649954	          0.07273442	         -0.17857330	
          0.21000000	         -0.01100268	          0.23444512	          0.89426824	          0.06956494	          0.40489385	         -0.98685652	         -0.53415319	         -0.28156401	          0.07716737	         -0.17603678	
          0.22000000	         -0.00945355	          0.24466117	          0.89725773	          0.10214354	          0.38096570	         -1.02283518	         -0.51715331	         -0.30643015	          0.07991428	         -0.17212918	
          0.23000000	         -0.00848708	          0.25475732	          0.90004216	          0.13777700	          0.35765361	         -1.06037203	         -0.49965407	         -0.31939933	          0.08268224	         -0.16794612	
          0.24000000	         -0.00652113	          0.26496058	          0.90300423	          0.17205487	          0.33187974	         -1.09373919	         -0.47968941	         -0.33489862	          0.08481940	         -0.16459653	
          0.25000000	         -0.00221165	          0.27511318	          0.90600715	          0.20467300	          0.30307637	         -1.12612743	         -0.45839990	         -0.33988184	          0.08757883	         -0.16467297	
          0.26000000	          0.00265735	          0.28512484	          0.90887857	          0.23783300	          0.27419067	         -1.15723943	         -0.43788159	         -0.34002860	          0.08854114	         -0.16593283	
          0.27000000	          0.00865924	          0.29515560	          0.91164828	          0.26970287	          0.24321244	         -1.18618808	         -0.41483754	         -0.32966306	          0.08966212	         -0.16877824	
          0.28000000	          0.01441237	          0.30498244	          0.91418441	          0.30230073	          0.21310868	         -1.21244753	         -0.39341145	         -0.32189168	          0.09269336	         -0.17184694	
          0.29000000	          0.02420866	          0.31519062	          0.91699387	          0.32890029	          0.17670370	         -1.23487958	         -0.36865371	         -0.30835468	          0.09315561	         -0.17918246	
          0.30000000	          0.03041273	          0.32490362	          0.91917674	          0.36025485	          0.14592049	         -1.25525984	         -0.34606270	         -0.29720762	          0.09289968	         -0.18336520	
          0.31000000	          0.03997406	          0.33468654	          0.92149044	          0.38684034	          0.11092061	         -1.27264946	         -0.32239407	         -0.28422176	          0.09418517	         -0.19180385	
          0.32000000	          0.04540271	          0.34419878	          0.92301077	          0.41816251	          0.08275740	         -1.28837904	         -0.30258148	         -0.26734129	          0.09622661	         -0.19597080	
          0.33000000	          0.05450068	          0.35384356	          0.92484594	          0.44293457	          0.04768006	         -1.29879945	         -0.27657278	         -0.25393249	          0.09417379	         -0.20448635	
          0.34000000	          0.06549483	          0.36363618	          0.92663029	          0.46428966	          0.01256940	         -1.30411308	         -0.25534863	         -0.24509909	          0.09367440	         -0.21493155	
          0.35000000	          0.07271434	          0.37309022	          0.92762821	          0.48881907	         -0.01726934	         -1.30702525	         -0.23567064	         -0.23232840	          0.09648093	         -0.22213641	
          0.36000000	          0.07780110	          0.38217554	          0.92831601	          0.51405690	         -0.04278558	         -1.30380894	         -0.21871055	         -0.22618760	          0.09729376	         -0.22805297	
          0.37000000	          0.08827199	          0.39156638	          0.92930722	          0.52945381	         -0.07500349	         -1.29410258	         -0.20083614	         -0.21913437	          0.09846295	         -0.23925041	
          0.38000000	          0.09487616	          0.40067654	          0.92960118	          0.54713102	         -0.10063908	         -1.27801999	         -0.18660051	         -0.20926915	          0.09946019	         -0.24658201	
          0.39000000	          0.10418018	          0.40998693	          0.93003338	          0.55738837	         -0.12829895	         -1.25345536	         -0.17459406	         -0.19961360	          0.10072097	         -0.25657601	
          0.40000000	          0.10941886	          0.41895230	          0.92973303	          0.56934080	         -0.14770827	         -1.22388008	         -0.16941316	         -0.18575746	          0.10414567	         -0.26236422	
          0.41000000	          0.11629777	          0.42818023	          0.92948247	          0.57491685	         -0.16750529	         -1.18779495	         -0.16711928	         -0.16914126	          0.11008111	         -0.26900861	
